<svg xmlns="http://www.w3.org/2000/svg" width="8" height="14" viewBox="0 0 8 14">
    <path fill="#CACACA" fill-rule="evenodd" d="M1.363.98L6.97 6.267l.024.027.012.012-.036-.039c.037.035.07.073.098.114l.007.011c.016.023.03.047.043.072l.014.03c.011.022.02.044.028.067l.01.031c.006.019.01.037.014.056.005.02.009.041.011.062l.003.033c.003.025.004.051.003.078l-.002.018c-.007.184-.084.364-.228.5l-5.607 5.286c-.318.3-.814.3-1.132 0l-.03-.031c-.278-.295-.264-.76.03-1.038l5.041-4.753L.232 2.049c-.295-.278-.309-.743-.03-1.038l.03-.03c.317-.3.813-.3 1.131 0z"/>
</svg>
