<svg xmlns="http://www.w3.org/2000/svg" width="137" height="33" viewBox="0 0 137 33">
    <g fill="none" fill-rule="evenodd">
        <g>
            <g>
                <g>
                    <path fill="#111" d="M68 0l3.75 4.999L133 5c2.21 0 4 1.79 4 4v20c0 2.21-1.79 4-4 4H4c-2.21 0-4-1.79-4-4V9c0-2.21 1.79-4 4-4l60.25-.001L68 0z" transform="translate(-857 -60) translate(857 60)"/>
                    <path fill="#FFF" fill-rule="nonzero" d="M19.684 24.488V14.12h-1.128v4.164H17.2v-4.116h-1.128v10.2H17.2v-5.064h1.356v5.184h1.128zm-8.304-.312c.672-1.212 1.104-2.592 1.392-4.044.504 1.368 1.2 2.724 2.076 3.792l.924-.66c-1.296-1.56-2.184-3.528-2.676-5.448.12-1.2.156-2.412.156-3.588h-1.128c0 3.276-.24 6.768-1.8 9.528l1.056.42zM30.712 20.6v-1.008h-7.788v-1.644h7.668v-3.612h-8.796v1.02h7.668v1.584h-7.668v3.66h8.916zm.444 3.432v-1.02h-4.392v-1.836h-1.128v1.836h-4.404v1.02h9.924zm7.536-5.628c1.74 0 2.82-.732 2.82-2.148 0-1.296-1.08-2.136-2.82-2.136h-3.384c-1.752 0-2.82.84-2.82 2.136 0 1.416 1.068 2.148 2.82 2.148h3.384zm0-1.02h-3.384c-1.08 0-1.584-.444-1.584-1.128 0-.672.624-1.128 1.584-1.128h3.384c1.068 0 1.572.456 1.572 1.128 0 .684-.504 1.128-1.572 1.128zm-1.08 4.86v-1.92h4.344v-1.02h-9.924v1.02h4.452v1.92h1.128zm3.9 2.124V23.36h-7.788v-2.028h-1.128v3.036h8.916zm13.164-3.852V17.72h1.464v-1.008h-1.464V14.12h-1.128v6.396h1.128zm-8.136.036c.936-.696 1.68-1.608 2.184-2.688.72.912 1.728 1.776 2.796 2.388l.732-.84c-1.248-.672-2.424-1.656-3.108-2.748.108-.42.192-.852.216-1.308h2.256v-1.02h-5.508v1.02h2.124c-.144 1.968-1.104 3.504-2.58 4.476l.888.72zm8.136 4.044v-3.492h-8.46v1.02h7.332v2.472h1.128zm10.8-.108v-5.22h1.464V18.26h-1.464v-4.14h-1.128v10.368h1.128zm-8.292-.444c2.928-1.536 4.572-4.26 4.572-7.464v-2.244h-4.848v1.02h3.72v1.428c0 2.7-1.452 5.04-4.176 6.408l.732.852zm19.548-5.724v-.972h-7.788v-.54h7.668v-2.472h-8.796v.972h7.668v.54h-7.668v2.472h8.916zm.444 1.512v-.984h-9.924v.984h9.924zm-.444 4.536v-.972h-7.788v-.564h7.668v-2.46h-8.796v.972h7.668v.528h-7.668v2.496h8.916zm13.164-2.412v-3.708h1.464v-1.02h-1.464V14.12h-1.128v7.836h1.128zm-3.264-2.088v-5.532h-5.304v5.532h5.304zm-1.128-1.02h-3.048v-3.492h3.048v3.492zm4.62 5.52V23.36h-7.44v-2.256h-1.128v3.264h8.568zm10.572.12v-5.22h1.464V18.26h-1.464v-4.14h-1.128v10.368h1.128zm-2.256-.456v-1.02h-5.184v-8.676h-1.128v9.696h6.312zm13.512-6.108v-.984h-7.788v-2.712h-1.128v3.696h8.916zm.444 2.4v-1.02h-9.924v1.02h9.924zm-.444 4.044V23.36h-7.788v-2.136h-1.128v3.144h8.916zm13.5-6.3v-3.732h-8.796v1.02h7.668v2.712h1.128zm.564 1.8v-1.02h-5.184v-2.076h-1.128v2.076h-3.612v1.02h9.924zm-.708 4.5l.492-.9c-1.584-.288-3.276-1.008-4.38-2.04.144-.24.264-.504.372-.768l-1.116-.24c-.636 1.644-2.34 2.76-4.356 3.06l.612.888c1.476-.24 2.928-.972 3.936-2.16 1.116 1.044 2.844 1.848 4.44 2.16z" transform="translate(-857 -60) translate(857 60)"/>
                </g>
            </g>
        </g>
    </g>
</svg>
