<svg xmlns="http://www.w3.org/2000/svg" width="62" height="26" viewBox="0 0 62 26">
    <g fill="none" fill-rule="evenodd">
        <g>
            <g>
                <g>
                    <path fill="#FCBC19" d="M5.133 20.732L61.925 20.732 61.925 0 5.133 0z" transform="translate(-795 -31) translate(795 31)"/>
                    <path fill="#FCBC19" d="M0 25.929L56.791 25.929 56.791 5.198 0 5.198z" transform="translate(-795 -31) translate(795 31)"/>
                    <path fill="#000" d="M9.88 7.1c-1.294 0-2.336.331-3.127.993-.79.662-1.186 1.533-1.186 2.614 0 .893.26 1.61.78 2.15.52.54 1.332.921 2.438 1.142l1.842.364c.94.165 1.41.551 1.41 1.158 0 .386-.164.686-.49.901-.326.215-.782.323-1.368.323-.741 0-1.352-.168-1.833-.505-.481-.336-.766-.791-.854-1.365H5.103c.1 1.225.603 2.19 1.51 2.895.906.706 2.05 1.06 3.433 1.06 1.349 0 2.433-.326 3.251-.977.818-.65 1.228-1.516 1.228-2.597 0-.904-.288-1.602-.863-2.093-.575-.49-1.432-.852-2.571-1.083l-1.393-.282c-.542-.11-.946-.264-1.211-.463-.266-.198-.398-.48-.398-.843 0-.43.177-.77.53-1.018.354-.248.83-.372 1.427-.372 1.272 0 1.99.563 2.156 1.687h2.372c-.066-.694-.257-1.293-.572-1.795-.315-.501-.708-.885-1.178-1.15-.47-.264-.948-.454-1.434-.57-.487-.116-.99-.174-1.51-.174zm15.128 2.432V7.348h-9.936v2.184h3.765v9.066h2.405V9.532h3.766zm6.933 6.899l.88 2.167h2.537L30.514 7.282H28.26l-4.86 11.316h2.554l.88-2.167h5.108zm-.88-2.168h-3.35l1.659-4.119 1.692 4.12zm15.543-1.935h-5.922v2.117h3.334c-.254.651-.647 1.164-1.177 1.539-.531.375-1.178.562-1.94.562-1.051 0-1.897-.333-2.539-1-.641-.668-.962-1.481-.962-2.44 0-1.137.332-2.04.995-2.714.664-.672 1.526-1.009 2.588-1.009 1.504 0 2.483.634 2.936 1.903h2.554c-.31-1.335-.978-2.363-2.007-3.085-1.028-.723-2.2-1.084-3.516-1.084-1.692 0-3.11.562-4.255 1.687-1.144 1.125-1.717 2.564-1.717 4.318 0 1.577.559 2.923 1.676 4.036 1.117 1.114 2.527 1.671 4.23 1.671 1.647 0 2.897-.595 3.748-1.787l.133 1.556h1.841v-6.27zm4.263-2.812h5.955V7.348h-8.36v11.25h8.36V16.43h-5.955v-2.3h5.274v-2.167h-5.274V9.516z" transform="translate(-795 -31) translate(795 31)"/>
                </g>
            </g>
        </g>
    </g>
</svg>
