<svg xmlns="http://www.w3.org/2000/svg" width="35" height="20" viewBox="0 0 35 20">
    <g fill="none" fill-rule="evenodd">
        <g fill="#333" fill-rule="nonzero">
            <g>
                <g>
                    <g>
                        <path d="M13.34 10.46v-4.4h2.6v-1.7h-2.6V0h-2.06v10.46h2.06zM8.3 9.14V.88H6.26V3.5h-4.2V.92H0v8.22h8.3zM6.26 7.5h-4.2V5.1h4.2v2.4zm1.28 10.3c3.84 0 6.02-1.4 6.02-3.52 0-2.14-2.16-3.56-6.02-3.56-3.8 0-5.98 1.42-5.98 3.56 0 2.12 2.18 3.52 5.98 3.52zm0-1.64c-2.44 0-3.86-.72-3.86-1.88s1.4-1.9 3.86-1.9c2.48 0 3.92.72 3.92 1.9 0 1.16-1.44 1.88-3.92 1.88zm23.78-9.14l.9-1.62c-2.52-.16-6.28-2.08-6.28-4.7V.14h-2.12V.7c0 2.62-3.32 4.38-6.28 4.7l.88 1.6c2.76-.44 5.6-2 6.44-3.94.88 1.94 3.9 3.56 6.46 3.96zm1.58 3.06V8.42h-7.04V5.98h-2.04v2.44H16.8v1.66h16.1zm-8.04 7.76c3.92 0 6.18-1.26 6.18-3.26 0-2-2.26-3.28-6.2-3.28-3.92 0-6.16 1.28-6.16 3.28 0 2 2.24 3.26 6.18 3.26zm-.02-1.62c-2.5 0-4.06-.6-4.06-1.64 0-1.02 1.56-1.64 4.06-1.64 2.52 0 4.08.62 4.08 1.64 0 1.04-1.56 1.64-4.08 1.64z" transform="translate(-855 -110) translate(0 80) translate(855 30) translate(1 1)"/>
                    </g>
                </g>
            </g>
        </g>
    </g>
</svg>
