<svg xmlns="http://www.w3.org/2000/svg" width="82" height="20" viewBox="0 0 82 20">
    <g fill="none" fill-rule="evenodd">
        <g fill="#333">
            <g>
                <g>
                    <g transform="translate(-568 -110) translate(0 80) translate(568 30)">
                        <path fill-rule="nonzero" d="M15.64 10.8V0h-1.96v10.8h1.96zm-3.3-.06V.32H10.4v8.22H7.56V10h2.84v.74h1.94zm-7.5-4.86c2.18 0 3.86-1.04 3.86-2.72C8.7 1.44 7.02.4 4.84.4 2.66.4 1.02 1.44 1.02 3.14c0 1.7 1.64 2.74 3.82 2.74zm0-1.52c-1.14 0-1.94-.5-1.94-1.22 0-.7.76-1.2 1.94-1.2 1.16 0 1.96.5 1.96 1.2 0 .72-.84 1.22-1.96 1.22zm.92 6.4V8.1c1.3-.1 2.6-.22 3.9-.4l-.12-1.48c-1.4.18-3.06.28-4.38.34-1.58.08-3.66.1-5.16.12l.24 1.68c1.2-.02 2.4-.06 3.58-.14v2.54h1.94zm9.88 6.84v-6.08H13.6v1.42H5.36v-1.38H3.34v6.04h12.3zM13.6 16H5.36v-1.46h8.24V16zm18.48-6.34l1.06-1.58c-2.68-.5-6.44-2.98-6.44-6V1.02h-2.14v1.06c0 3.06-3.52 5.46-6.44 5.92l1 1.66c2.7-.64 5.66-2.68 6.48-4.9.92 2.2 3.82 4.22 6.48 4.9zm1.58 5.92v-1.66H26.6V9.54h-2.04v4.38h-7v1.66h16.1zm15.86-6.52V0h-2.04v3.26h-3.26v1.72h3.26v4.08h2.04zm-13.58.2c1.82-.72 3.66-2.3 4.2-4.16.8 1.74 2.62 3.12 4.1 3.7l1.14-1.54c-1.98-.62-4.2-2.56-4.2-5.34V.58h-2.12V2c0 2.76-1.84 4.8-4.34 5.72l1.22 1.54zm14.18 8.42v-1.62H39.96v-1.48h9.58V10h-11.7v1.66h9.66v1.4h-9.6v4.62h12.22z" transform="translate(.34 .76)"/>
                        <path d="M72 1c4.97 0 9 4.03 9 9s-4.03 9-9 9-9-4.03-9-9 4.03-9 9-9zm0 4c-.552 0-1 .448-1 1v4.018c-.004.243.088.488.274.674l3.013 3.008c.387.386 1.01.399 1.412.029l.028-.027c.366-.367.365-.96 0-1.326l-2.728-2.722L73 6c0-.552-.448-1-1-1z"/>
                        <circle cx="57.5" cy="9.5" r="1.5"/>
                    </g>
                </g>
            </g>
        </g>
    </g>
</svg>
