<svg xmlns="http://www.w3.org/2000/svg" width="65" height="20" viewBox="0 0 65 20">
    <g fill="none" fill-rule="evenodd">
        <g fill="#333">
            <g>
                <g>
                    <g transform="translate(-418 -110) translate(0 80) translate(418.34 30.76)">
                        <path fill-rule="nonzero" d="M15.64 10.8V0h-1.96v10.8h1.96zm-3.3-.06V.32H10.4v8.22H7.56V10h2.84v.74h1.94zm-7.5-4.86c2.18 0 3.86-1.04 3.86-2.72C8.7 1.44 7.02.4 4.84.4 2.66.4 1.02 1.44 1.02 3.14c0 1.7 1.64 2.74 3.82 2.74zm0-1.52c-1.14 0-1.94-.5-1.94-1.22 0-.7.76-1.2 1.94-1.2 1.16 0 1.96.5 1.96 1.2 0 .72-.84 1.22-1.96 1.22zm.92 6.4V8.1c1.3-.1 2.6-.22 3.9-.4l-.12-1.48c-1.4.18-3.06.28-4.38.34-1.58.08-3.66.1-5.16.12l.24 1.68c1.2-.02 2.4-.06 3.58-.14v2.54h1.94zm9.88 6.84v-6.08H13.6v1.42H5.36v-1.38H3.34v6.04h12.3zM13.6 16H5.36v-1.46h8.24V16zm18.12-7.82V6.56h-9.96V5.2h9.2V3.64h-9.2V2.3h9.82V.7H19.7v7.48h12.02zm-4.96 6.14v-3.06h6.9V9.62h-16.1v1.64h7.14v3.06h2.06zm5.02 3v-1.64H21.7v-3.16h-2.06v4.8h12.14z"/>
                        <path d="M54.66.24c4.97 0 9 4.03 9 9s-4.03 9-9 9-9-4.03-9-9 4.03-9 9-9zm0 4c-.552 0-1 .448-1 1v4.018c-.004.243.088.488.274.674l3.013 3.008c.387.386 1.01.399 1.412.029l.028-.027c.366-.367.365-.96 0-1.326l-2.728-2.722.001-3.654c0-.552-.448-1-1-1z"/>
                        <circle cx="40.16" cy="8.74" r="1.5"/>
                    </g>
                </g>
            </g>
        </g>
    </g>
</svg>
