<svg xmlns="http://www.w3.org/2000/svg" width="18" height="20" viewBox="0 0 18 20">
    <g fill="none" fill-rule="evenodd">
        <g fill="#000" fill-rule="nonzero">
            <g>
                <g>
                    <g>
                        <path d="M11.72 2.3V.9H5.64v1.4h6.08zm3.84 2.2V3.08H1.72V4.5h13.84zm.98 7.84V10.9H9.5V9.8c2.94-.14 4.5-.98 4.5-2.38 0-1.48-1.84-2.36-5.34-2.36S3.3 5.92 3.3 7.42c0 1.4 1.52 2.22 4.42 2.38v1.1H.76v1.44h15.78zM8.66 8.52c-2.16 0-3.52-.4-3.52-1.1 0-.68 1.36-1.06 3.52-1.06 2.14 0 3.52.38 3.52 1.06 0 .7-1.38 1.1-3.52 1.1zm5.82 9.72v-5H2.82v5h11.66zm-1.78-1.38H4.58v-2.24h8.12v2.24z" transform="translate(-315 -110) translate(0 80) translate(315 30)"/>
                    </g>
                </g>
            </g>
        </g>
    </g>
</svg>
