<svg xmlns="http://www.w3.org/2000/svg" width="129" height="28" viewBox="0 0 129 28">
    <g fill="none" fill-rule="evenodd">
        <g fill="#333">
            <g>
                <g>
                    <path d="M2.317 0L0 .53v20.857h2.317V0zm1.021 13.774l6.428 8.004 1.82-1.45-5.517-6.665 4.773-6.023-1.82-1.366-5.684 7.5zM22.49 18.896v-3.604h-2.588c-2.613 0-3.796.916-3.796 2.86 0 1.573.825 2.459 2.31 2.459 1.35 0 3.11-.743 4.073-1.715m-2.888-5.29h2.888v-1.23c0-2.373-1.018-3.317-2.944-3.317-1.348 0-2.861.43-4.045 1l-.688-1.686C16.27 7.515 18.032 7 19.601 7c3.439 0 5.118 1.716 5.118 5.49v9.837h-1.707l-.275-1.658c-1.431 1.2-3.275 1.887-4.733 1.887-2.559 0-4.1-1.602-4.1-4.29 0-3.059 1.981-4.66 5.697-4.66M37.602 6.274l1.82 1.366-4.772 6.023 5.518 6.665-1.822 1.45-6.427-8.004 5.683-7.5zm-6.704 15.113H28.58V.53L30.898 0v21.387zM51.071 18.896v-3.604h-2.587c-2.615 0-3.797.916-3.797 2.86 0 1.573.826 2.459 2.31 2.459 1.349 0 3.11-.743 4.074-1.715m-2.89-5.29h2.89v-1.23c0-2.373-1.018-3.317-2.944-3.317-1.35 0-2.863.43-4.045 1l-.689-1.686C44.851 7.515 46.613 7 48.181 7c3.44 0 5.118 1.716 5.118 5.49v9.837h-1.706l-.275-1.658c-1.431 1.2-3.274 1.887-4.732 1.887-2.56 0-4.101-1.602-4.101-4.29 0-3.059 1.981-4.66 5.696-4.66M58.831 14.806c0 3.79 1.515 5.784 4.124 5.784 2.61 0 4.125-1.994 4.125-5.784 0-3.789-1.515-5.84-4.125-5.84-2.61 0-4.124 2.051-4.124 5.84m10.69 0c0 4.985-2.44 7.75-6.566 7.75-4.096 0-6.566-2.765-6.566-7.75C56.39 9.792 58.887 7 62.955 7c4.097 0 6.566 2.792 6.566 7.806M75.815 10.155v10.03c.839.313 1.794.399 2.576.399 3.27 0 4.862-2.274 4.862-6.11 0-3.58-1.07-5.456-3.733-5.456-1.303 0-2.778.511-3.705 1.137m0 11.906V28h-2.432V7.398h1.766l.347 1.194C76.654 7.711 78.246 7 80.156 7c3.82 0 5.587 2.842 5.587 7.473 0 4.775-2.606 8.042-6.744 8.042-1.1 0-2.142-.084-3.184-.454M96.646 18.896v-3.604h-2.587c-2.615 0-3.798.916-3.798 2.86 0 1.573.826 2.459 2.311 2.459 1.349 0 3.11-.743 4.074-1.715m-2.89-5.29h2.89v-1.23c0-2.373-1.019-3.317-2.945-3.317-1.348 0-2.862.43-4.045 1l-.688-1.686C90.426 7.515 92.188 7 93.756 7c3.44 0 5.118 1.716 5.118 5.49v9.837h-1.706l-.275-1.658c-1.431 1.2-3.274 1.887-4.733 1.887-2.56 0-4.1-1.602-4.1-4.29 0-3.059 1.981-4.66 5.696-4.66M111.535 11.62c0-2.031-1.17-3.017-3.506-3.017-2.28 0-3.477.986-3.477 3.016 0 1.945 1.196 2.904 3.505 2.904s3.478-.959 3.478-2.904m-6.454 9.502c-.724.845-1.002 1.607-1.002 2.48 0 1.664 1.252 2.539 3.81 2.539 2.7 0 4.397-.987 4.397-2.679 0-1.382-.974-2.227-2.838-2.227h-3.171c-.446 0-.835-.028-1.196-.113m.25-5.188c-.529.62-.779 1.213-.779 1.805 0 1.07.612 1.578 2.198 1.578h3.004c2.95 0 4.757 1.466 4.757 3.835 0 3.101-2.476 4.849-6.815 4.849-4.007 0-5.732-1.692-5.732-3.834 0-1.381.585-2.594 1.67-3.581-.752-.508-1.17-1.269-1.17-2.199 0-1.072.474-2.171 1.531-3.13-1.085-.818-1.67-2.03-1.67-3.637 0-3.016 2.171-4.878 5.704-4.878 1.587 0 2.532.31 3.478.874l2.282-2.17 1.307 2.311-2.504.79c.807.874 1.168 1.833 1.168 3.101 0 2.933-2.225 4.737-5.73 4.737-1.03 0-1.892-.17-2.7-.451M119.14 13.838h7.504c0-3.333-1.15-4.872-3.622-4.872-2.501 0-3.795 1.738-3.881 4.872m9.859.17c0 .656-.057 1.34-.143 1.682h-9.687c.144 3.247 1.552 4.843 4.714 4.843 1.35 0 2.96-.342 4.139-.911l.632 1.708c-1.437.798-3.22 1.226-5.03 1.226-4.6 0-6.984-2.65-6.984-7.75 0-4.9 2.385-7.806 6.467-7.806C126.872 7 129 9.536 129 14.009" transform="translate(-290 -30) translate(290 30)"/>
                </g>
            </g>
        </g>
    </g>
</svg>
