<svg xmlns="http://www.w3.org/2000/svg" width="35" height="20" viewBox="0 0 35 20">
    <g fill="none" fill-rule="evenodd">
        <g fill="#333" fill-rule="nonzero">
            <g>
                <g>
                    <g>
                        <path d="M14.56 10.76V0H12.5v2.18H9.7l.06 1.66h2.74v2.58H9.76L9.7 8.1h2.8v2.66h2.06zm-10-1.44c2.56 0 4.58-1.58 4.58-4.1C9.14 2.74 7.08 1 4.56 1 2.02 1 0 2.76 0 5.22c0 2.54 2.08 4.1 4.56 4.1zm0-1.56c-1.5 0-2.58-1.06-2.58-2.56 0-1.38 1.06-2.5 2.58-2.5 1.6 0 2.58 1.1 2.58 2.52 0 1.46-1.06 2.54-2.58 2.54zm4.02 10.06c3.88 0 6.1-1.42 6.1-3.5 0-2.16-2.22-3.56-6.1-3.56-3.84 0-6.04 1.4-6.04 3.56 0 2.08 2.2 3.5 6.04 3.5zm0-1.66c-2.46 0-3.94-.7-3.94-1.84 0-1.18 1.48-1.88 3.94-1.88 2.54 0 4 .7 4 1.88 0 1.14-1.46 1.84-4 1.84zm22.58 1.66V9.28h2.54v-1.7h-2.54V0h-2.04v17.82h2.04zM25 2.48V.88h-5.2v1.6H25zm2.52 2.6v-1.6h-10.3v1.6h10.3zm-10.48 9.98c3.72-.02 7.58-.16 11.2-.64l-.16-1.58c-1.18.14-2.68.26-4.46.38v-1.56c1.88-.34 3.12-1.48 3.12-2.94 0-1.76-1.78-3-4.32-3-2.52 0-4.32 1.24-4.32 3 0 1.54 1.4 2.72 3.46 2.98v1.6c-1.66.06-3.28.06-4.8.06l.28 1.7zm5.38-4.94c-1.26 0-2.2-.58-2.2-1.4s.94-1.42 2.2-1.42c1.28 0 2.2.6 2.2 1.42s-.92 1.4-2.2 1.4z" transform="translate(-735 -110) translate(0 80) translate(735 30) translate(.72 .76)"/>
                    </g>
                </g>
            </g>
        </g>
    </g>
</svg>
